# xmcd CD database generated by RipIT
#
# Track frame offsets:
# 150
# 13749
# 27058
# 51382
#
# Disc length: 1661 seconds
#
# Revision: 2
# Processed by: cddbd v1.5.2PL0 Copyright (c) Steve Scherf et al.
# Submitted via: RipIT 3.8.2 www.suwald.com/ripit/ripit.html on 2011-04-23 at 22:21
#
DISCID=2a067b04
DTITLE=Texas Lightning - No No Never
DYEAR=2006
DGENRE=Country
TTITLE0=No No Never
TTITLE1=Waterloo
TTITLE2=I Can't Get Your Horse Off My Mind
TTITLE3=No No Never - Video, Interwiew-Video, Live-Photo-Gallery
EXTD=Enchanged Deluxe Edition YEAR: 2006\n
EXTT0=
EXTT1=
EXTT2=
EXTT3=
PLAYORDER=
